<?xml version="1.0" encoding="utf-8"?>
<!-- Generator: Adobe Illustrator 19.1.0, SVG Export Plug-In . SVG Version: 6.00 Build 0)  -->
<!DOCTYPE svg PUBLIC "-//W3C//DTD SVG 1.1//EN" "http://www.w3.org/Graphics/SVG/1.1/DTD/svg11.dtd">
<svg version="1.1" id="Calque_1" xmlns="http://www.w3.org/2000/svg" xmlns:xlink="http://www.w3.org/1999/xlink" x="0px" y="0px"
	 viewBox="0 0 100 100" style="enable-background:new 0 0 100 100;" xml:space="preserve">
<style type="text/css">
	.st0{fill:#010202;}
</style>
<path class="st0" d="M0,13.5c0-3.2,1.1-5.9,3.3-7.9s5.1-3.1,8.7-3.1s6.5,1,8.6,3.1s3.3,4.7,3.3,7.9c0,3.2-1,5.8-3.3,7.9
	s-5.2,3.2-8.8,3.2h-0.1c-3.5,0-6.4-1.1-8.6-3.2S0,16.6,0,13.5z M1.2,97.6V33.3h21.4v64.3H1.2z M34.5,97.6c0.1-17.3,0.1-31.3,0.1-42
	s0-17.1-0.1-19.2l-0.1-3.1h21.3v9.3h-0.1c0.9-1.4,1.8-2.6,2.7-3.6s2.1-2.2,3.7-3.4c1.5-1.2,3.4-2.2,5.6-2.8c2.2-0.7,4.7-1,7.4-1
	c7.4,0,13.3,2.5,17.8,7.4s6.7,12.1,6.7,21.6v36.9H78.3V63.2c0-4.5-0.9-8.1-2.6-10.7c-1.8-2.6-4.5-3.9-8.2-3.9c-2.7,0-5,0.7-6.8,2.2
	c-1.8,1.5-3.2,3.3-4.1,5.5c-0.5,1.3-0.7,3-0.7,5.3v35.9H34.5z"/>
</svg>
