<?xml version="1.0" encoding="utf-8"?>
<!-- Generator: Adobe Illustrator 19.1.0, SVG Export Plug-In . SVG Version: 6.00 Build 0)  -->
<!DOCTYPE svg PUBLIC "-//W3C//DTD SVG 1.1//EN" "http://www.w3.org/Graphics/SVG/1.1/DTD/svg11.dtd">
<svg version="1.1" id="Calque_1" xmlns="http://www.w3.org/2000/svg" xmlns:xlink="http://www.w3.org/1999/xlink" x="0px" y="0px"
	 viewBox="0 0 100 100" style="enable-background:new 0 0 100 100;" xml:space="preserve">
<style type="text/css">
	.st0{fill:#010202;}
</style>
<path class="st0" d="M97.6,85.4L70.7,58.5c3.7-6.1,6.1-12.2,6.1-19.5c0-22-17.1-39-39-39S0,17.1,0,37.8s17.1,37.8,37.8,37.8
	c7.3,0,14.6-2.4,19.5-6.1l28,28c2.4,2.4,4.9,2.4,7.3,2.4c1.2,0,3.7,0,4.9-2.4c2.4-2.4,2.4-3.7,2.4-6.1C100,89,98.8,86.6,97.6,85.4
	L97.6,85.4z M37.8,59.8C25.6,59.8,17.1,50,17.1,39s9.8-20.7,20.7-20.7S58.5,28,58.5,39S50,59.8,37.8,59.8L37.8,59.8z"/>
</svg>
