<?xml version="1.0" encoding="utf-8"?>
<!-- Generator: Adobe Illustrator 19.1.0, SVG Export Plug-In . SVG Version: 6.00 Build 0)  -->
<!DOCTYPE svg PUBLIC "-//W3C//DTD SVG 1.1//EN" "http://www.w3.org/Graphics/SVG/1.1/DTD/svg11.dtd">
<svg version="1.1" id="Calque_1" xmlns="http://www.w3.org/2000/svg" xmlns:xlink="http://www.w3.org/1999/xlink" x="0px" y="0px"
	 viewBox="0 0 100 100" style="enable-background:new 0 0 100 100;" xml:space="preserve">
<style type="text/css">
	.st0{fill:#010202;}
</style>
<path class="st0" d="M0,81.3c1.5,0.2,3.1,0.3,4.9,0.3c9.5,0,18-2.9,25.4-8.7c-4.4-0.1-8.4-1.4-11.9-4.1c-3.5-2.6-5.9-6-7.2-10.1
	c1.4,0.2,2.7,0.3,3.9,0.3c1.8,0,3.6-0.2,5.4-0.7c-4.7-1-8.6-3.3-11.7-7.1c-3.1-3.7-4.7-8.1-4.7-13V38c2.9,1.6,5.9,2.5,9.2,2.6
	c-2.8-1.9-5-4.3-6.6-7.3S4.2,27,4.2,23.5c0-3.7,0.9-7.2,2.8-10.3c5.1,6.3,11.3,11.3,18.6,15.1s15.2,5.9,23.5,6.3
	c-0.3-1.6-0.5-3.2-0.5-4.7c0-5.7,2-10.5,6-14.5s8.8-6,14.5-6c5.9,0,10.9,2.2,14.9,6.5c4.6-0.9,8.9-2.5,13-4.9
	c-1.6,4.9-4.6,8.6-9,11.3c3.9-0.4,7.8-1.5,11.8-3.2c-2.8,4.1-6.2,7.7-10.3,10.6c0,0.6,0.1,1.5,0.1,2.7c0,5.5-0.8,11-2.4,16.4
	s-4,10.7-7.3,15.7c-3.3,5-7.2,9.5-11.7,13.3c-4.5,3.9-10,6.9-16.3,9.2c-6.4,2.3-13.2,3.4-20.4,3.4C20,90.5,9.5,87.4,0,81.3z"/>
</svg>
